#N canvas 953 0 958 980 12;
#X obj 249 751 *~;
#X obj 243 284 mtof;
#X floatatom 205 426 5 0 0 0 - - - 0;
#X obj 243 246 unpack f f;
#X obj 310 308 / 127;
#X floatatom 310 282 5 0 0 0 - - - 0;
#X floatatom 310 334 5 0 0 0 - - - 0;
#X obj 243 136 inlet;
#X obj 250 792 outlet~;
#X msg 313 686 \$1 10, f 6;
#X obj 314 717 line~;
#X text 372 686 Rampa de suavização do sinal digital variável 1 guarda 10ms de atraso;
#N canvas 761 28 958 980 seletorOitava 0;
#X floatatom 621 8 5 0 0 0 - oitava - 0;
#X obj 412 71 == 0;
#X obj 552 73 == 1;
#X obj 663 78 == 2;
#X obj 754 78 == 3;
#X obj 838 73 == 4;
#X floatatom 410 129 5 0 0 0 - - - 0;
#X floatatom 554 138 5 0 0 0 - - - 0;
#X floatatom 661 128 5 0 0 0 - - - 0;
#X floatatom 754 133 5 0 0 0 - - - 0;
#X floatatom 839 136 5 0 0 0 - - - 0;
#X obj 348 238 spigot;
#X obj 458 242 spigot;
#X obj 551 248 spigot;
#X obj 639 246 spigot;
#X obj 210 235 spigot;
#X obj 210 259 / 4;
#X obj 348 262 / 2;
#X obj 551 272 * 2;
#X obj 639 270 * 4;
#X floatatom 345 326 5 0 0 0 - - - 0;
#X floatatom 550 327 5 0 0 0 - - - 0;
#X floatatom 639 326 5 0 0 0 - - - 0;
#X floatatom 210 331 5 0 0 0 - - - 0;
#X obj 442 509 outlet;
#X floatatom 454 327 5 0 0 0 - - - 0;
#X obj 11 9 inlet;
#X connect 0 0 1 0;
#X connect 0 0 2 0;
#X connect 0 0 5 0;
#X connect 0 0 4 0;
#X connect 0 0 3 0;
#X connect 1 0 6 0;
#X connect 2 0 7 0;
#X connect 3 0 8 0;
#X connect 4 0 9 0;
#X connect 5 0 10 0;
#X connect 6 0 15 1;
#X connect 7 0 11 1;
#X connect 8 0 12 1;
#X connect 9 0 13 1;
#X connect 10 0 14 1;
#X connect 11 0 17 0;
#X connect 12 0 25 0;
#X connect 13 0 18 0;
#X connect 14 0 19 0;
#X connect 15 0 16 0;
#X connect 16 0 23 0;
#X connect 17 0 20 0;
#X connect 18 0 21 0;
#X connect 19 0 22 0;
#X connect 20 0 24 0;
#X connect 21 0 24 0;
#X connect 22 0 24 0;
#X connect 23 0 24 0;
#X connect 25 0 24 0;
#X connect 26 0 15 0;
#X connect 26 0 11 0;
#X connect 26 0 14 0;
#X connect 26 0 13 0;
#X connect 26 0 12 0;
#X restore 142 482 pd seletorOitava;
#X obj 386 316 bng 19 250 50 0 empty reset empty 0 -10 0 12 #fcfcfc #000000 #000000;
#X obj 388 372 metro 10;
#N canvas 51 274 790 524 seletorFormaDeOnda1 0;
#X obj 20 44 inlet;
#X obj 518 40 r formaDeOnda1;
#X floatatom 519 77 5 0 0 0 - - - 0;
#X obj 401 144 == 0;
#X obj 513 144 == 1;
#X obj 629 147 == 2;
#X obj 738 145 == 3;
#X text 344 146 Senoide;
#X text 445 146 Quadrada;
#X text 550 147 triangular;
#X text 667 112 dente de serra;
#N canvas 191 325 450 300 senoide 0;
#X obj 85 38 inlet;
#X obj 315 39 inlet;
#X obj 85 158 osc~;
#X msg 110 117 0;
#X obj 110 71 r reset;
#X obj 84 254 outlet~;
#X obj 85 210 *~;
#X connect 0 0 2 0;
#X connect 1 0 6 1;
#X connect 2 0 6 0;
#X connect 3 0 2 1;
#X connect 4 0 3 0;
#X connect 6 0 5 0;
#X restore 20 228 pd senoide;
#N canvas 170 125 809 483 quadrada 0;
#X obj 50 76 inlet;
#X obj 355 89 inlet;
#X obj 50 258 osc~;
#X msg 75 217 0;
#X obj 75 171 r reset;
#X obj 46 426 outlet~;
#X obj 50 310 *~ 1000;
#X obj 49 348 clip~ -1 1;
#X obj 87 389 *~;
#X connect 0 0 2 0;
#X connect 1 0 8 1;
#X connect 2 0 6 0;
#X connect 3 0 2 1;
#X connect 4 0 3 0;
#X connect 6 0 7 0;
#X connect 7 0 8 0;
#X connect 8 0 5 0;
#X restore 117 230 pd quadrada;
#N canvas 404 249 450 549 triangular 0;
#X obj 39 23 inlet;
#X obj 391 248 inlet;
#X msg 216 87 0;
#X obj 216 59 r reset;
#X obj 37 466 outlet~;
#X obj 39 139 phasor~;
#X obj 39 175 *~ 2;
#X obj 38 218 -~ 1;
#X obj 37 431 *~;
#X floatatom 39 51 5 0 0 0 - - - 0;
#X obj 67 84 * -1;
#X obj 37 267 clip~ 0 1;
#X obj 38 333 +~;
#X obj 38 357 *~ 2;
#X obj 38 381 -~ 1;
#X obj 215 139 phasor~;
#X obj 215 175 *~ 2;
#X obj 214 212 -~ 1;
#X obj 214 261 clip~ 0 1;
#X connect 0 0 9 0;
#X connect 1 0 8 1;
#X connect 2 0 5 1;
#X connect 2 0 15 1;
#X connect 3 0 2 0;
#X connect 5 0 6 0;
#X connect 6 0 7 0;
#X connect 7 0 11 0;
#X connect 8 0 4 0;
#X connect 9 0 10 0;
#X connect 9 0 5 0;
#X connect 10 0 15 0;
#X connect 11 0 12 0;
#X connect 12 0 13 0;
#X connect 13 0 14 0;
#X connect 14 0 8 0;
#X connect 15 0 16 0;
#X connect 16 0 17 0;
#X connect 17 0 18 0;
#X connect 18 0 12 1;
#X restore 213 231 pd triangular;
#N canvas 595 354 450 401 serra 0;
#X obj 41 30 inlet;
#X obj 339 38 inlet;
#X msg 87 138 0;
#X obj 87 91 r reset;
#X obj 41 334 outlet~;
#X obj 41 179 phasor~;
#X obj 41 215 *~ 2;
#X obj 40 258 -~ 1;
#X obj 41 299 *~;
#X connect 0 0 5 0;
#X connect 1 0 8 1;
#X connect 2 0 5 1;
#X connect 3 0 2 0;
#X connect 5 0 6 0;
#X connect 6 0 7 0;
#X connect 7 0 8 0;
#X connect 8 0 4 0;
#X restore 327 231 pd serra;
#X obj 19 435 outlet~;
#X connect 0 0 11 0;
#X connect 0 0 14 0;
#X connect 0 0 13 0;
#X connect 0 0 12 0;
#X connect 1 0 2 0;
#X connect 2 0 3 0;
#X connect 2 0 4 0;
#X connect 2 0 6 0;
#X connect 2 0 5 0;
#X connect 3 0 11 1;
#X connect 4 0 12 1;
#X connect 5 0 13 1;
#X connect 6 0 14 1;
#X connect 11 0 15 0;
#X connect 12 0 15 0;
#X connect 13 0 15 0;
#X connect 14 0 15 0;
#X restore 142 563 pd seletorFormaDeOnda1;
#X connect 0 0 8 0;
#X connect 1 0 2 0;
#X connect 2 0 12 0;
#X connect 3 0 1 0;
#X connect 3 1 5 0;
#X connect 4 0 6 0;
#X connect 5 0 4 0;
#X connect 6 0 9 0;
#X connect 7 0 3 0;
#X connect 9 0 10 0;
#X connect 10 0 0 1;
#X connect 12 0 15 0;
#X connect 13 0 14 0;
#X connect 14 0 2 0;
#X connect 15 0 0 0;
