#N canvas 27 58 775 980 12;
#X obj 246 717 osc~;
#X obj 249 751 *~;
#X obj 243 284 mtof;
#X floatatom 205 426 5 0 0 0 - - - 0;
#X obj 243 246 unpack f f;
#X obj 310 308 / 127;
#X floatatom 310 282 5 0 0 0 - - - 0;
#X floatatom 310 334 5 0 0 0 - - - 0;
#X obj 243 136 inlet;
#X obj 250 792 outlet~;
#X obj 313 686 line~;
#X text 372 686 Rampa de suavização do sinal digital variável 1 guarda 10ms de atraso;
#N canvas 761 28 958 980 seletorOitava 0;
#X floatatom 621 8 5 0 0 0 - oitava - 0;
#X obj 412 71 == 0;
#X obj 552 73 == 1;
#X obj 663 78 == 2;
#X obj 754 78 == 3;
#X obj 838 73 == 4;
#X floatatom 410 129 5 0 0 0 - - - 0;
#X floatatom 554 138 5 0 0 0 - - - 0;
#X floatatom 661 128 5 0 0 0 - - - 0;
#X floatatom 754 133 5 0 0 0 - - - 0;
#X floatatom 839 136 5 0 0 0 - - - 0;
#X obj 348 238 spigot;
#X obj 458 242 spigot;
#X obj 551 248 spigot;
#X obj 639 246 spigot;
#X obj 210 235 spigot;
#X obj 210 259 / 4;
#X obj 348 262 / 2;
#X obj 551 272 * 2;
#X obj 639 270 * 4;
#X floatatom 345 326 5 0 0 0 - - - 0;
#X floatatom 550 327 5 0 0 0 - - - 0;
#X floatatom 639 326 5 0 0 0 - - - 0;
#X floatatom 210 331 5 0 0 0 - - - 0;
#X obj 442 509 outlet;
#X floatatom 454 327 5 0 0 0 - - - 0;
#X obj 11 9 inlet;
#X connect 0 0 1 0;
#X connect 0 0 2 0;
#X connect 0 0 5 0;
#X connect 0 0 4 0;
#X connect 0 0 3 0;
#X connect 1 0 6 0;
#X connect 2 0 7 0;
#X connect 3 0 8 0;
#X connect 4 0 9 0;
#X connect 5 0 10 0;
#X connect 6 0 15 1;
#X connect 7 0 11 1;
#X connect 8 0 12 1;
#X connect 9 0 13 1;
#X connect 10 0 14 1;
#X connect 11 0 17 0;
#X connect 12 0 25 0;
#X connect 13 0 18 0;
#X connect 14 0 19 0;
#X connect 15 0 16 0;
#X connect 16 0 23 0;
#X connect 17 0 20 0;
#X connect 18 0 21 0;
#X connect 19 0 22 0;
#X connect 20 0 24 0;
#X connect 21 0 24 0;
#X connect 22 0 24 0;
#X connect 23 0 24 0;
#X connect 25 0 24 0;
#X connect 26 0 15 0;
#X connect 26 0 11 0;
#X connect 26 0 14 0;
#X connect 26 0 13 0;
#X connect 26 0 12 0;
#X restore 175 479 pd seletorOitava;
#X obj 386 316 bng 19 250 50 0 empty reset empty 0 -10 0 12 #fcfcfc #000000 #000000;
#X obj 361 362 metro 10;
#X obj 310 400 t b f;
#X obj 310 430 f;
#X obj 310 460 sel 0;
#X obj 310 490 bng 15 250 50 0 empty empty empty 17 7 0 10 #fcfcfc #000000 #000000;
#X obj 380 490 bng 15 250 50 0 empty empty empty 17 7 0 10 #fcfcfc #000000 #000000;
#X obj 310 518 pack 0 100;
#X obj 449 517 pack 0 250;
#X obj 310 550 line;
#X obj 313 580 s \$0-envelope;
#X obj 313 650 r \$0-envelope;
#X obj 319 619 pack 0 10;
#X connect 0 0 1 0;
#X connect 1 0 9 0;
#X connect 2 0 3 0;
#X connect 3 0 12 0;
#X connect 4 0 2 0;
#X connect 4 1 6 0;
#X connect 5 0 7 0;
#X connect 6 0 5 0;
#X connect 7 0 15 0;
#X connect 8 0 4 0;
#X connect 10 0 1 1;
#X connect 12 0 0 0;
#X connect 13 0 14 0;
#X connect 14 0 3 0;
#X connect 15 0 16 0;
#X connect 15 1 16 1;
#X connect 16 0 17 0;
#X connect 17 0 18 0;
#X connect 17 1 19 0;
#X connect 18 0 20 0;
#X connect 19 0 21 0;
#X connect 20 0 22 0;
#X connect 21 0 22 0;
#X connect 22 0 23 0;
#X connect 24 0 10 0;
