#N canvas 0 25 1440 772 12;
#X msg 148 289 60 0;
#X obj 422 426 route 1 2 3 4 5 6 7 8;
#X obj 482 639 /~ 8;
#X msg 148 199 60 127;
#X obj 482 674 dac~;
#X text 158 175 C3;
#X obj 433 363 poly 8 0;
#X obj 425 397 pack f f f;
#X text 224 177 C#3;
#X msg 218 199 61 127;
#X text 290 177 D3;
#X msg 288 199 62 127;
#X text 363 175 D#3;
#X msg 358 199 63 127;
#X msg 428 199 64 127;
#X msg 498 199 65 127;
#X msg 568 199 66 127;
#X msg 638 199 67 127;
#X msg 695 200 68 127;
#X msg 765 200 69 127;
#X msg 835 200 70 127;
#X msg 905 200 71 127;
#X text 434 173 E3;
#X text 501 173 F3;
#X text 575 175 F#3;
#X text 642 178 G3;
#X text 705 177 G#3;
#X text 768 178 A3;
#X text 840 176 A#3;
#X text 914 178 B3;
#X text 978 178 C4;
#X msg 969 200 72 127;
#X msg 218 289 61 0;
#X msg 288 289 62 0;
#X msg 358 289 63 0;
#X msg 428 289 64 0;
#X msg 498 289 65 0;
#X msg 568 289 66 0;
#X msg 638 289 67 0;
#X msg 695 290 68 0;
#X msg 765 291 69 0;
#X msg 835 290 70 0;
#X msg 905 290 71 0;
#X msg 969 290 72 0;
#X obj 230 472 oscilador;
#X obj 315 471 oscilador;
#X obj 398 472 oscilador;
#X obj 564 474 oscilador;
#X obj 482 473 oscilador;
#X obj 732 474 oscilador;
#X obj 818 475 oscilador;
#X obj 649 474 oscilador;
#X obj 35 -15 vradio 19 1 0 5 oitava resetOitava empty 0 -10 0 12 #fcfcfc #000000 #000000 0;
#X text 60 -17 -2;
#X text 60 5 -1;
#X text 66 27 0;
#X text 66 48 1;
#X text 66 67 2;
#X obj 857 -54 loadbang;
#X obj 847 31 send reset;
#X obj 725 30 send resetOitava;
#X msg 783 -9 2;
#X obj 972 511 cnv 20 50 200 empty empty empty 20 12 0 12 #e0e0e0 #404040 0;
#X obj 1032 511 cnv 20 50 200 empty empty empty 20 12 0 12 #e0e0e0 #404040 0;
#X obj 1092 511 cnv 20 50 200 empty empty empty 20 12 0 12 #e0e0e0 #404040 0;
#X obj 1152 511 cnv 20 50 200 empty empty empty 20 12 0 12 #e0e0e0 #404040 0;
#X obj 1212 511 cnv 20 50 200 empty empty empty 20 12 0 12 #e0e0e0 #404040 0;
#X obj 1272 511 cnv 20 50 200 empty empty empty 20 12 0 12 #e0e0e0 #404040 0;
#X obj 1017 511 cnv 20 20 120 empty empty empty 20 12 0 12 #000000 #404040 0;
#X obj 1137 511 cnv 20 20 120 empty empty empty 20 12 0 12 #000000 #404040 0;
#X obj 1197 511 cnv 20 20 120 empty empty empty 20 12 0 12 #000000 #404040 0;
#X obj 1257 511 cnv 20 20 120 empty empty empty 20 12 0 12 #000000 #404040 0;
#X obj 913 511 bng 45 250 50 0 empty empty empty 0 -10 0 12 #fcfcfc #000000 #000000;
#X obj 913 565 bng 45 250 50 0 empty empty empty 0 -10 0 12 #fcfcfc #000000 #000000;
#X obj 913 614 bng 45 250 50 0 empty empty empty 0 -10 0 12 #fcfcfc #000000 #000000;
#X obj 913 663 bng 45 250 50 0 empty empty empty 0 -10 0 12 #fcfcfc #000000 #000000;
#X obj 912 511 cnv 50 50 200 empty corC1 empty 20 12 0 12 #e0e0e0 #404040 0;
#X msg 1101 334 list #00FF04;
#X obj 1126 458 s corC1;
#X msg 1101 364 color \$1;
#X msg 1198 372 list #E0E0E0;
#X obj 1101 279 bng 20 250 50 0 empty empty empty 0 -10 0 12 #fcfcfc #000000 #000000;
#X obj 1332 511 bng 45 250 50 0 empty empty empty 0 -10 0 12 #fcfcfc #000000 #000000;
#X obj 1333 560 bng 45 250 50 0 empty empty empty 0 -10 0 12 #fcfcfc #000000 #000000;
#X obj 1333 609 bng 45 250 50 0 empty empty empty 0 -10 0 12 #fcfcfc #000000 #000000;
#X obj 1333 658 bng 45 250 50 0 empty empty empty 0 -10 0 12 #fcfcfc #000000 #000000;
#X obj 1332 511 cnv 50 50 200 empty corC2 empty 20 12 0 12 #e0e0e0 #404040 0;
#X obj 957 511 cnv 20 20 120 empty empty empty 20 12 0 12 #000000 #404040 0;
#X msg 1198 402 color \$1;
#X obj 135 6 vradio 19 1 0 4 formaDeOnda1 resetFormaDeOnda empty 0 -10 0 12 #fcfcfc #000000 #000000 0;
#X text 161 7 Senoide;
#X text 162 27 Quadrada;
#X text 162 47 Triangular;
#X text 162 65 Dente de Serra;
#X msg 692 -13 0;
#X obj 568 30 send resetFormaDeOnda;
#X obj 1198 310 del 250;
#X obj 1042 463 s C1;
#X obj 72 139 r C1;
#X obj 72 168 t b b;
#X obj 72 257 del 250;
#X text 91 -79 OSCILADOR 1;
#X text 27 -44 OITAVA:;
#X text 128 -22 FORMA DE ONDA:;
#X obj 343 -26 hsl 162 19 0 10000 0 0 ataque resetAtaque empty -2 -10 0 12 #fcfcfc #000000 #000000 0 1;
#X text 326 -25 0;
#X text 506 -25 10;
#X text 336 -45 ATACK (segundos);
#X obj 343 14 hsl 162 19 0 10000 0 0 decaimento resetDecaimento empty -2 -10 0 12 #fcfcfc #000000 #000000 0 1;
#X text 326 15 0;
#X text 506 15 10;
#X text 336 -5 DECAY (segundos);
#X obj 343 54 hsl 162 19 0 1 0 0 sustain resetSustain empty -2 -10 0 12 #fcfcfc #000000 #000000 0 1;
#X text 326 55 0;
#X text 336 35 SUSTAIN (amplitude);
#X text 506 55 1;
#X obj 343 94 hsl 162 19 0 10000 0 0 release resetRelease empty -2 -10 0 12 #fcfcfc #000000 #000000 0 1;
#X text 326 95 0;
#X text 336 75 RELEASE (segundos);
#X text 506 95 10;
#X text 364 -72 ENVELOPE DE ONDA:;
#X obj 570 68 s resetAtaque;
#X obj 580 98 s resetDecaimento;
#X obj 590 128 s resetSustain;
#X obj 720 138 s resetRelease;
#X obj 114 521 loadbang;
#X obj 115 581 metro 100;
#N canvas 0 22 450 278 (subpatch) 0;
#X array onda 100 float 3;
#A 0 0 0 0 0 0 0 0 0 0 0 0 0 0 0 0 0 0 0 0 0 0 0 0 0 0 0 0 0 0 0 0 0 0 0 0 0 0 0 0 0 0 0 0 0 0 0 0 0 0 0 0 0 0 0 0 0 0 0 0 0 0 0 0 0 0 0 0 0 0 0 0 0 0 0 0 0 0 0 0 0 0 0 0 0 0 0 0 0 0 0 0 0 0 0 0 0 0 0 0 0;
#X coords 0 1 100 -1 200 140 1;
#X restore 689 574 graph;
#X obj 115 635 tabwrite~ onda;
#X text 962 7 APRIMORAR O ENVELOPE DE ONDA PARA A SITUAÇÃO EM QUE O USUÁRIO DIGITA A NOTA E ELA SEGUE O ENVELOPE;
#X text 961 -15 OBS.:;
#X connect 0 0 6 0;
#X connect 1 0 44 0;
#X connect 1 1 45 0;
#X connect 1 2 46 0;
#X connect 1 3 48 0;
#X connect 1 4 47 0;
#X connect 1 5 51 0;
#X connect 1 6 49 0;
#X connect 1 7 50 0;
#X connect 2 0 4 0;
#X connect 2 0 4 1;
#X connect 2 0 128 0;
#X connect 3 0 6 0;
#X connect 6 0 7 0;
#X connect 6 1 7 1;
#X connect 6 2 7 2;
#X connect 7 0 1 0;
#X connect 9 0 6 0;
#X connect 11 0 6 0;
#X connect 13 0 6 0;
#X connect 14 0 6 0;
#X connect 15 0 6 0;
#X connect 16 0 6 0;
#X connect 17 0 6 0;
#X connect 18 0 6 0;
#X connect 19 0 6 0;
#X connect 20 0 6 0;
#X connect 21 0 6 0;
#X connect 31 0 6 0;
#X connect 32 0 6 0;
#X connect 33 0 6 0;
#X connect 34 0 6 0;
#X connect 35 0 6 0;
#X connect 36 0 6 0;
#X connect 37 0 6 0;
#X connect 38 0 6 0;
#X connect 39 0 6 0;
#X connect 40 0 6 0;
#X connect 41 0 6 0;
#X connect 42 0 6 0;
#X connect 43 0 6 0;
#X connect 44 0 2 0;
#X connect 45 0 2 0;
#X connect 46 0 2 0;
#X connect 47 0 2 0;
#X connect 48 0 2 0;
#X connect 49 0 2 0;
#X connect 50 0 2 0;
#X connect 51 0 2 0;
#X connect 58 0 59 0;
#X connect 58 0 61 0;
#X connect 58 0 94 0;
#X connect 61 0 60 0;
#X connect 72 0 81 0;
#X connect 73 0 81 0;
#X connect 74 0 81 0;
#X connect 75 0 81 0;
#X connect 77 0 79 0;
#X connect 79 0 78 0;
#X connect 80 0 88 0;
#X connect 81 0 77 0;
#X connect 81 0 97 0;
#X connect 81 0 96 0;
#X connect 88 0 78 0;
#X connect 94 0 95 0;
#X connect 94 0 121 0;
#X connect 94 0 122 0;
#X connect 94 0 123 0;
#X connect 94 0 124 0;
#X connect 96 0 80 0;
#X connect 98 0 99 0;
#X connect 99 0 100 0;
#X connect 99 1 3 0;
#X connect 100 0 0 0;
#X connect 125 0 126 0;
#X connect 126 0 128 0;
