#N canvas -7 0 1920 989 12;
#X msg 148 229 60 0;
#X obj 422 376 route 1 2 3 4 5 6 7 8;
#X obj 482 639 /~ 8;
#X msg 148 189 60 127;
#X obj 482 674 dac~;
#X msg 30 33;
#X floatatom 28 74 5 0 0 0 - - - 0;
#X text 20 12 Ctrl+2: Mensagens;
#X text 16 52 Ctrl+3: Números;
#X obj 27 123;
#X text 16 102 Ctrl+1: Objetos;
#X text 158 165 C3;
#X obj 433 313 poly 8 0;
#X obj 425 347 pack f f f;
#X text 224 167 C#3;
#X msg 218 189 61 127;
#X text 290 167 D3;
#X msg 288 189 62 127;
#X text 363 165 D#3;
#X msg 358 189 63 127;
#X msg 428 189 64 127;
#X msg 498 189 65 127;
#X msg 568 189 66 127;
#X msg 638 189 67 127;
#X msg 695 190 68 127;
#X msg 765 190 69 127;
#X msg 835 190 70 127;
#X msg 905 190 71 127;
#X text 434 163 E3;
#X text 501 163 F3;
#X text 575 165 F#3;
#X text 642 168 G3;
#X text 705 167 G#3;
#X text 768 168 A3;
#X text 840 166 A#3;
#X text 914 168 B3;
#X text 978 168 C4;
#X msg 969 190 72 127;
#X msg 218 229 61 0;
#X msg 288 229 62 0;
#X msg 358 229 63 0;
#X msg 428 229 64 0;
#X msg 498 229 65 0;
#X msg 568 229 66 0;
#X msg 638 229 67 0;
#X msg 695 230 68 0;
#X msg 765 231 69 0;
#X msg 835 230 70 0;
#X msg 905 230 71 0;
#X msg 969 230 72 0;
#X obj 230 472 oscilador;
#X obj 315 471 oscilador;
#X obj 398 472 oscilador;
#X obj 564 474 oscilador;
#X obj 482 473 oscilador;
#X obj 732 474 oscilador;
#X obj 818 475 oscilador;
#X obj 649 474 oscilador;
#X obj 223 697 vradio 19 1 0 5 oitava resetOitava empty 0 -10 0 12 #fcfcfc #000000 #000000 0;
#X floatatom 222 841 5 0 0 0 - - - 0;
#X text 248 695 -2;
#X text 248 717 -1;
#X text 254 739 0;
#X text 254 760 1;
#X text 254 779 2;
#X obj 837 726 loadbang;
#X obj 827 811 send reset;
#X obj 705 810 send resetOitava;
#X msg 763 771 2;
#X obj 1182 571 cnv 20 50 200 empty empty empty 20 12 0 12 #e0e0e0 #404040 0;
#X obj 1242 571 cnv 20 50 200 empty empty empty 20 12 0 12 #e0e0e0 #404040 0;
#X obj 1302 571 cnv 20 50 200 empty empty empty 20 12 0 12 #e0e0e0 #404040 0;
#X obj 1362 571 cnv 20 50 200 empty empty empty 20 12 0 12 #e0e0e0 #404040 0;
#X obj 1422 571 cnv 20 50 200 empty empty empty 20 12 0 12 #e0e0e0 #404040 0;
#X obj 1482 571 cnv 20 50 200 empty empty empty 20 12 0 12 #e0e0e0 #404040 0;
#X obj 1227 571 cnv 20 20 120 empty empty empty 20 12 0 12 #000000 #404040 0;
#X obj 1347 571 cnv 20 20 120 empty empty empty 20 12 0 12 #000000 #404040 0;
#X obj 1407 571 cnv 20 20 120 empty empty empty 20 12 0 12 #000000 #404040 0;
#X obj 1467 571 cnv 20 20 120 empty empty empty 20 12 0 12 #000000 #404040 0;
#X floatatom 77 250 5 0 0 0 - - - 0;
#X obj 1123 571 bng 45 250 50 0 empty empty empty 0 -10 0 12 #fcfcfc #000000 #000000;
#X obj 1123 625 bng 45 250 50 0 empty empty empty 0 -10 0 12 #fcfcfc #000000 #000000;
#X obj 1123 674 bng 45 250 50 0 empty empty empty 0 -10 0 12 #fcfcfc #000000 #000000;
#X obj 1123 723 bng 45 250 50 0 empty empty empty 0 -10 0 12 #fcfcfc #000000 #000000;
#X obj 1122 571 cnv 50 50 200 empty corC1 empty 20 12 0 12 #e0e0e0 #404040 0;
#X msg 1307 414 list #00FF04;
#X obj 1336 518 s corC1;
#X msg 1306 464 color \$1;
#X msg 1408 412 list #E0E0E0;
#X obj 1311 339 bng 20 250 50 0 empty empty empty 0 -10 0 12 #fcfcfc #000000 #000000;
#X obj 1252 523 s C1on;
#X obj 1414 517 s C1off;
#X obj 159 139 r C1on;
#X obj 59 189 r C1off;
#X floatatom 159 285 5 0 0 0 - - - 0;
#X obj 1542 571 bng 45 250 50 0 empty empty empty 0 -10 0 12 #fcfcfc #000000 #000000;
#X obj 1543 620 bng 45 250 50 0 empty empty empty 0 -10 0 12 #fcfcfc #000000 #000000;
#X obj 1543 669 bng 45 250 50 0 empty empty empty 0 -10 0 12 #fcfcfc #000000 #000000;
#X obj 1543 718 bng 45 250 50 0 empty empty empty 0 -10 0 12 #fcfcfc #000000 #000000;
#X obj 1542 571 cnv 50 50 200 empty corC2 empty 20 12 0 12 #e0e0e0 #404040 0;
#X obj 1167 571 cnv 20 20 120 empty empty empty 20 12 0 12 #000000 #404040 0;
#X msg 1413 462 color \$1;
#X obj 333 698 vradio 19 1 0 4 formaDeOnda1 resetFormaDeOnda empty 0 -10 0 12 #fcfcfc #000000 #000000 0;
#X text 359 699 Senoide;
#X text 360 719 Quadrada;
#X text 360 739 Triangular;
#X text 360 757 Dente de Serra;
#X msg 672 767 0;
#X obj 548 810 send resetFormaDeOnda;
#X obj 1408 370 del 250;
#X connect 0 0 12 0;
#X connect 0 0 94 0;
#X connect 1 0 50 0;
#X connect 1 1 51 0;
#X connect 1 2 52 0;
#X connect 1 3 54 0;
#X connect 1 4 53 0;
#X connect 1 5 57 0;
#X connect 1 6 55 0;
#X connect 1 7 56 0;
#X connect 2 0 4 0;
#X connect 2 0 4 1;
#X connect 3 0 12 0;
#X connect 3 0 79 0;
#X connect 12 0 13 0;
#X connect 12 1 13 1;
#X connect 12 2 13 2;
#X connect 13 0 1 0;
#X connect 15 0 12 0;
#X connect 17 0 12 0;
#X connect 19 0 12 0;
#X connect 20 0 12 0;
#X connect 21 0 12 0;
#X connect 22 0 12 0;
#X connect 23 0 12 0;
#X connect 24 0 12 0;
#X connect 25 0 12 0;
#X connect 26 0 12 0;
#X connect 27 0 12 0;
#X connect 37 0 12 0;
#X connect 38 0 12 0;
#X connect 39 0 12 0;
#X connect 40 0 12 0;
#X connect 41 0 12 0;
#X connect 42 0 12 0;
#X connect 43 0 12 0;
#X connect 44 0 12 0;
#X connect 45 0 12 0;
#X connect 46 0 12 0;
#X connect 47 0 12 0;
#X connect 48 0 12 0;
#X connect 49 0 12 0;
#X connect 50 0 2 0;
#X connect 51 0 2 0;
#X connect 52 0 2 0;
#X connect 53 0 2 0;
#X connect 54 0 2 0;
#X connect 55 0 2 0;
#X connect 56 0 2 0;
#X connect 57 0 2 0;
#X connect 58 0 59 0;
#X connect 65 0 66 0;
#X connect 65 0 68 0;
#X connect 65 0 107 0;
#X connect 68 0 67 0;
#X connect 80 0 89 0;
#X connect 81 0 89 0;
#X connect 82 0 89 0;
#X connect 83 0 89 0;
#X connect 85 0 87 0;
#X connect 87 0 86 0;
#X connect 87 0 90 0;
#X connect 88 0 101 0;
#X connect 89 0 85 0;
#X connect 89 0 109 0;
#X connect 92 0 3 0;
#X connect 93 0 0 0;
#X connect 101 0 91 0;
#X connect 101 0 86 0;
#X connect 107 0 108 0;
#X connect 109 0 88 0;
